<svg width="484" height="538" viewBox="0 0 484 538" fill="none" xmlns="http://www.w3.org/2000/svg">
<path d="M406.289 0.605469C368.801 0.605469 338.414 30.9961 338.414 68.4805C338.414 105.969 368.801 136.355 406.289 136.355C443.773 136.355 474.164 105.969 474.164 68.4805C474.164 30.9961 443.773 0.605469 406.289 0.605469Z" fill="#F8CD6C"/>
<path d="M483.578 233.254C483.578 190.596 448.997 156.016 406.34 156.016C363.682 156.016 329.102 190.596 329.102 233.254V459.785C329.102 502.443 363.682 537.023 406.34 537.023C448.997 537.023 483.578 502.443 483.578 459.785V233.254Z" fill="#F8CD6C"/>
<path d="M154.652 233.254C154.652 190.596 120.072 156.016 77.4141 156.016C34.7565 156.016 0.175781 190.596 0.175781 233.254V459.785C0.175781 502.443 34.7565 537.023 77.4141 537.023C120.072 537.023 154.652 502.443 154.652 459.785V233.254Z" fill="#F8CD6C"/>
<path d="M389.484 154.605C397.387 154.605 405.289 156.254 413.191 159.551C444.137 172.738 458.621 208.344 445.453 239.336C410.887 321.762 330.883 374.84 241.664 374.84C152.445 374.84 72.4415 321.762 37.5469 239.336C24.3751 208.344 38.8633 172.406 69.8086 159.551C100.758 146.359 136.641 160.867 149.481 191.859C165.285 228.785 201.5 252.852 241.664 252.852C281.828 252.852 317.715 228.785 333.516 191.859C343.066 168.781 365.781 154.605 389.484 154.605Z" fill="#F8CD6C"/>
<path d="M77.3633 0.605469C39.875 0.605469 9.48828 30.9961 9.48828 68.4805C9.48828 105.969 39.875 136.355 77.3633 136.355C114.848 136.355 145.238 105.969 145.238 68.4805C145.238 30.9961 114.848 0.605469 77.3633 0.605469Z" fill="#F8CD6C"/>
</svg>
