<svg width="484" height="537" viewBox="0 0 484 537" fill="none" xmlns="http://www.w3.org/2000/svg">
<path d="M406.113 0C368.625 0 338.238 30.3906 338.238 67.875C338.238 105.363 368.625 135.75 406.113 135.75C443.598 135.75 473.988 105.363 473.988 67.875C473.988 30.3906 443.598 0 406.113 0Z" fill="black"/>
<path d="M483.402 232.648C483.402 189.991 448.822 155.41 406.164 155.41V155.41C363.507 155.41 328.926 189.991 328.926 232.648V459.18C328.926 501.837 363.507 536.418 406.164 536.418V536.418C448.822 536.418 483.402 501.837 483.402 459.18V232.648Z" fill="black"/>
<path d="M154.477 232.648C154.477 189.991 119.896 155.41 77.2383 155.41V155.41C34.5808 155.41 0 189.991 0 232.648V459.18C0 501.837 34.5808 536.418 77.2383 536.418V536.418C119.896 536.418 154.477 501.837 154.477 459.18V232.648Z" fill="black"/>
<path d="M389.309 154C397.211 154 405.113 155.648 413.016 158.945C443.961 172.133 458.445 207.738 445.277 238.73C410.711 321.156 330.707 374.234 241.488 374.234C152.27 374.234 72.2657 321.156 37.3711 238.73C24.1993 207.738 38.6876 171.801 69.6329 158.945C100.582 145.754 136.465 160.262 149.305 191.254C165.109 228.18 201.324 252.246 241.488 252.246C281.652 252.246 317.539 228.18 333.34 191.254C342.891 168.176 365.606 154 389.309 154Z" fill="black"/>
<path d="M77.1875 0C39.6992 0 9.3125 30.3906 9.3125 67.875C9.3125 105.363 39.6992 135.75 77.1875 135.75C114.672 135.75 145.062 105.363 145.062 67.875C145.062 30.3906 114.672 0 77.1875 0Z" fill="black"/>
</svg>
